<?xml version="1.0" encoding="utf-8"?>
<!-- Generator: Adobe Illustrator 26.5.0, SVG Export Plug-In . SVG Version: 6.00 Build 0)  -->
<svg version="1.0" id="katman_1" xmlns="http://www.w3.org/2000/svg" xmlns:xlink="http://www.w3.org/1999/xlink" x="0px" y="0px"
	 viewBox="0 0 1190.55 841.89" style="enable-background:new 0 0 1190.55 841.89;" xml:space="preserve">
<style type="text/css">
	.st0{clip-path:url(#SVGID_00000091711183278080252800000014984722688827367562_);}
	.st1{fill:#A42322;}
	.st2{fill:#DC382C;}
	.st3{fill:#FFFFFF;}
	.st4{fill:#741614;}
	.st5{fill:#AC2824;}
	.st6{fill:#4A4C4D;}
</style>
<g id="Layer_2">
	<g id="Layer_1-2">
		<g>
			<defs>
				<rect id="SVGID_1_" x="113.13" y="256.3" width="382.83" height="328.08"/>
			</defs>
			<clipPath id="SVGID_00000163780676713921500290000012387397389763143831_">
				<use xlink:href="#SVGID_1_"  style="overflow:visible;"/>
			</clipPath>
			<g style="clip-path:url(#SVGID_00000163780676713921500290000012387397389763143831_);">
				<path class="st1" d="M480.9,509.24c-20.39,10.67-126.23,54.2-149.03,66.15c-22.8,11.95-35.01,11.61-52.84,3.09
					s-130.08-54.17-150.42-63.9c-10.25-4.81-15.48-8.92-15.48-12.76v-38.72c0,0,146.63-31.82,170.29-40.4s31.85-8.79,51.95-1.41
					c20.11,7.37,140.64,29.13,160.54,36.34v38.17c0,3.97-4.58,7.84-15.01,13.41L480.9,509.24z"/>
				<path class="st2" d="M480.9,470.7c-20.39,10.62-126.23,54.15-149.03,65.89c-22.8,11.74-35.01,11.64-52.84,3.14
					s-130.08-54.15-150.42-63.8s-20.73-16.39-0.78-24.19c19.95-7.79,131.93-51.64,155.6-60.27c23.66-8.63,31.85-8.81,51.95-1.41
					c20.11,7.4,125.5,49.26,145.29,56.55s20.71,13.28,0.24,23.87V470.7z"/>
				<path class="st1" d="M480.9,446.18c-20.39,10.64-126.23,54.15-149.03,65.89c-22.8,11.74-34.91,11.64-52.74,3.09
					c-17.83-8.55-130.18-53.94-150.52-63.64c-10.25-4.86-15.48-8.94-15.48-12.81v-38.59c0,0,146.63-31.92,170.29-40.5
					c23.66-8.58,31.85-8.81,51.95-1.33c20.11,7.48,140.64,29.02,160.54,36.29v38.17C495.91,436.71,491.34,440.69,480.9,446.18z"/>
				<path class="st2" d="M480.9,407.45c-20.39,10.67-126.23,54.17-149.03,65.91c-22.8,11.74-35.01,11.66-52.84,3.14
					c-17.83-8.52-130.08-53.99-150.42-63.72c-20.34-9.73-20.71-16.34-0.78-24.13c19.92-7.79,131.93-51.74,155.6-60.14
					c23.66-8.39,31.85-8.92,51.95-1.62c20.11,7.29,125.5,49.52,145.29,56.61s20.71,13.31,0.24,23.87V407.45z"/>
				<path class="st1" d="M480.9,380.73c-20.39,10.67-126.23,54.2-149.03,65.91c-22.8,11.71-34.91,11.64-52.74,3.14
					c-17.83-8.5-130.18-54.02-150.52-63.72c-10.25-4.81-15.48-8.92-15.48-12.79v-38.72c0,0,146.63-31.82,170.29-40.37
					c23.66-8.55,31.85-8.81,51.95-1.44c20.11,7.37,140.59,29.13,160.48,36.4v38.17C495.91,371.35,491.34,375.27,480.9,380.73z"/>
				<path class="st2" d="M480.9,342.06c-20.39,10.46-126.23,54.25-149.03,65.89c-22.8,11.64-35.01,11.61-52.84,3.14
					c-17.83-8.47-130.08-54.04-150.42-63.72c-20.34-9.67-20.73-16.39-0.78-24.19s131.93-51.72,155.6-60.24
					c23.66-8.52,31.85-8.79,51.95-1.41c20.11,7.37,125.5,49.29,145.29,56.55c19.79,7.27,20.71,13.31,0.24,23.9V342.06z"/>
			</g>
		</g>
		<polygon class="st3" points="310.54,287.08 335.79,278.79 328.94,295.16 354.65,304.78 321.52,308.23 314.07,326.11 
			302.09,306.16 263.79,302.71 292.39,292.41 283.79,276.57 310.54,287.08 310.54,287.08 		"/>
		<polygon class="st3" points="312.13,391.48 250.22,365.78 338.91,352.16 312.13,391.48 312.13,391.48 		"/>
		<path class="st3" d="M226.29,314.71c26.15,0,47.4,8.24,47.4,18.3c0,10.07-21.31,18.3-47.4,18.3s-47.43-8.24-47.43-18.3
			S200.12,314.71,226.29,314.71z"/>
		<polygon class="st4" points="393.89,309.67 446.37,330.4 393.94,351.14 393.89,309.67 393.89,309.67 		"/>
		<polygon class="st5" points="393.89,309.67 393.94,351.14 388.24,353.36 335.79,332.62 393.89,309.67 393.89,309.67 		"/>
		<path class="st6" d="M617.75,364.55c4.53-4.94,10.09-8.81,16.29-11.35c6.04-2.59,12.52-4.02,19.09-4.21
			c4.75-0.43,9.47,1.09,13.07,4.21c2.67,2.59,4.12,6.19,3.97,9.91c0.03,3.7-1.4,7.26-3.97,9.91c-2.51,2.81-6.14,4.37-9.91,4.26
			c-16.32,1.44-38.96,17.7-38.96,39.79v50.15c-0.22,7.73-6.44,13.94-14.17,14.15c-3.86,0.14-7.57-1.47-10.12-4.37
			c-2.68-2.61-4.2-6.17-4.24-9.91V362.51c0.03-3.74,1.56-7.3,4.24-9.91c3.1-2.24,6.82-3.48,10.64-3.56
			c7.74,0.15,13.98,6.38,14.15,14.12L617.75,364.55z"/>
		<path class="st6" d="M789.56,410.57c0.02,3.42-1.24,6.72-3.53,9.26c-2.71,2.52-6.22,4.01-9.91,4.24h-83.67
			c0.79,6.65,4.02,12.76,9.07,17.15c6.47,6.95,15.32,11.22,24.79,11.95c9.69,1.65,19.63-0.65,27.61-6.38
			c2.81-2.83,6.66-4.37,10.64-4.26c3.42-0.16,6.76,1.13,9.18,3.56c4.69,4.31,5.01,11.6,0.7,16.29c-0.01,0.01-0.01,0.02-0.02,0.02
			c-0.21,0.24-0.44,0.44-0.68,0.68c-12.47,11.54-29.01,17.66-45.99,16.99c-17.46,0.38-34.23-6.85-45.94-19.82
			c-11.99-12.66-18.8-29.36-19.09-46.8c-0.37-17.55,6.54-34.47,19.09-46.75c11.44-12.47,27.69-19.43,44.61-19.11
			c16.45-0.63,32.39,5.83,43.77,17.73c12,11.5,19.12,27.17,19.9,43.77v1.39L789.56,410.57z M726.55,373.05
			c-8.8,0.15-17.26,3.42-23.87,9.23c-5.63,4.73-9.6,11.15-11.32,18.3h74.33c-2.08-7.19-6.59-13.43-12.76-17.67
			c-7.44-6-16.6-9.49-26.15-9.96"/>
		<path class="st6" d="M922.77,465.79c-0.21,7.73-6.42,13.95-14.15,14.17c-6.7-0.27-12.45-4.87-14.17-11.35
			c-10.53,7.54-23.2,11.52-36.16,11.35c-17.1,0.19-33.51-6.73-45.31-19.11c-12.35-12.36-19.02-29.29-18.43-46.75
			c-0.11-17.37,6.49-34.11,18.43-46.72c11.71-12.6,28.11-19.8,45.31-19.9c12.71-0.17,25.13,3.82,35.38,11.35v-49.49
			c-0.1-3.77,1.46-7.39,4.26-9.91c2.64-2.72,6.26-4.25,10.04-4.26c3.77-0.1,7.39,1.46,9.91,4.26c2.69,2.6,4.22,6.17,4.26,9.91
			v156.46H922.77z M859.11,451.62c9.54,0.2,18.65-3.96,24.76-11.3c14.08-14.59,14.08-37.7,0-52.29
			c-6.29-7.11-15.27-11.26-24.76-11.45c-9.59-0.33-18.77,3.87-24.79,11.35c-14.08,14.59-14.08,37.7,0,52.29
			c6.22,7.2,15.27,11.32,24.79,11.3"/>
		<path class="st6" d="M964.63,309.33v5.7c0.13,4.05-1.46,7.96-4.37,10.77c-2.59,2.62-6.24,3.92-9.91,3.53
			c-3.75,0.13-7.37-1.41-9.88-4.21c-2.84-2.79-4.39-6.64-4.26-10.62v-5.23c0.02-3.74,1.56-7.32,4.26-9.91
			c2.59-2.69,6.15-4.22,9.88-4.26c3.77-0.06,7.38,1.51,9.91,4.31c2.84,2.5,4.43,6.13,4.34,9.91 M940.74,352.55
			c2.59-2.71,6.16-4.24,9.91-4.26c3.77-0.13,7.41,1.44,9.91,4.26c2.72,2.79,4.18,6.57,4.05,10.46v103.56
			c0.23,3.81-1.39,7.49-4.34,9.91c-2.59,2.69-6.15,4.22-9.88,4.26c-3.77,0.11-7.39-1.45-9.91-4.26c-2.71-2.59-4.24-6.16-4.26-9.91
			V363.11c-0.1-3.93,1.45-7.72,4.26-10.46"/>
		<path class="st6" d="M1065.06,362.46c2.9,2,4.93,5.03,5.67,8.47c0.57,3.6,0.08,7.29-1.41,10.62c-2.03,2.88-5.06,4.89-8.5,5.65
			c-3.69,0.68-7.5-0.08-10.64-2.12c-9.91-6.35-17.65-9.88-24.05-9.88c-5.66-0.36-11.25,1.39-15.69,4.92
			c-2.82,2.14-4.24,3.56-4.24,4.97c-0.2,1.23,0.05,2.49,0.71,3.56c0.8,0.87,1.76,1.59,2.82,2.12c5.77,3.63,12.34,5.81,19.14,6.35
			l0,0c8.8,1.45,17.37,4.09,25.47,7.84c7.14,2.98,13.11,8.22,16.99,14.9c10.57,16.31,5.92,38.1-10.39,48.67
			c-0.07,0.05-0.15,0.1-0.22,0.14c-9.9,7.08-21.82,10.8-33.99,10.62c-16.29,0-31.85-6.35-46.72-18.3c-2.71-2.38-4.47-5.66-4.97-9.23
			c-0.69-7.48,4.81-14.1,12.29-14.79c3.47-0.32,6.94,0.71,9.68,2.87c7.82,7.43,18.24,11.5,29.02,11.32
			c6.27,0.21,12.46-1.52,17.7-4.97c2.82-2.82,4.97-4.94,4.97-7.09s0-2.82-0.71-3.53c0-0.73-1.44-2.12-3.56-2.82
			c-6.46-4-13.71-6.55-21.26-7.48l0,0c-8.41-1.21-16.55-3.87-24.05-7.84c-6.88-3.35-12.74-8.47-16.99-14.82
			c-2.79-4.97-4.24-10.59-4.21-16.29c-0.02-11.68,5.82-22.59,15.56-29.05c9.59-6.54,20.95-9.99,32.55-9.91
			c11.92,0.73,24.79,5.65,38.93,14.88"/>
	</g>
</g>
</svg>
